<svg id="svg" version="1.1" xmlns="http://www.w3.org/2000/svg" xmlns:xlink="http://www.w3.org/1999/xlink" width="400" height="400" viewBox="0, 0, 400,400"><g id="svgg"><path id="path0" d="M123.868 113.066 C 123.627 113.307,123.461 149.471,123.700 149.693 C 123.755 149.744,135.680 149.879,150.200 149.993 L 176.600 150.200 176.800 219.400 L 177.000 288.600 200.000 288.600 L 223.000 288.600 223.200 219.400 L 223.400 150.200 249.800 149.993 C 264.320 149.879,276.247 149.744,276.304 149.693 C 276.361 149.642,276.361 141.365,276.304 131.300 L 276.200 113.000 200.168 112.899 C 158.350 112.843,124.015 112.918,123.868 113.066 " stroke="none" fill="#fcfcfc" fill-rule="evenodd"></path><path id="path1" d="M30.400 18.800 C 30.400 19.445,30.133 19.600,29.027 19.600 C 28.005 19.600,27.589 19.805,27.400 20.400 C 27.260 20.840,26.888 21.200,26.573 21.200 C 26.258 21.200,26.000 21.560,26.000 22.000 C 26.000 22.667,25.733 22.800,24.400 22.800 L 22.800 22.800 22.800 24.400 C 22.800 25.733,22.667 26.000,22.000 26.000 C 21.560 26.000,21.200 26.258,21.200 26.573 C 21.200 26.888,20.840 27.260,20.400 27.400 C 19.805 27.589,19.600 28.005,19.600 29.027 C 19.600 30.133,19.445 30.400,18.800 30.400 C 18.001 30.400,18.000 30.667,18.000 200.000 C 18.000 369.333,18.001 369.600,18.800 369.600 C 19.445 369.600,19.600 369.867,19.600 370.973 C 19.600 371.995,19.805 372.411,20.400 372.600 C 20.840 372.740,21.200 373.112,21.200 373.427 C 21.200 373.742,21.560 374.000,22.000 374.000 C 22.667 374.000,22.800 374.267,22.800 375.600 L 22.800 377.200 24.400 377.200 C 25.733 377.200,26.000 377.333,26.000 378.000 C 26.000 378.440,26.258 378.800,26.573 378.800 C 26.888 378.800,27.260 379.160,27.400 379.600 C 27.589 380.195,28.005 380.400,29.027 380.400 C 30.133 380.400,30.400 380.555,30.400 381.200 C 30.400 381.999,30.667 382.000,200.000 382.000 C 369.333 382.000,369.600 381.999,369.600 381.200 C 369.600 380.555,369.867 380.400,370.973 380.400 C 371.995 380.400,372.411 380.195,372.600 379.600 C 372.740 379.160,373.112 378.800,373.427 378.800 C 373.742 378.800,374.000 378.440,374.000 378.000 C 374.000 377.333,374.267 377.200,375.600 377.200 L 377.200 377.200 377.200 375.600 C 377.200 374.267,377.333 374.000,378.000 374.000 C 378.440 374.000,378.800 373.742,378.800 373.427 C 378.800 373.112,379.160 372.740,379.600 372.600 C 380.195 372.411,380.400 371.995,380.400 370.973 C 380.400 369.867,380.555 369.600,381.200 369.600 C 381.999 369.600,382.000 369.333,382.000 200.000 C 382.000 30.667,381.999 30.400,381.200 30.400 C 380.555 30.400,380.400 30.133,380.400 29.027 C 380.400 28.005,380.195 27.589,379.600 27.400 C 379.160 27.260,378.800 26.888,378.800 26.573 C 378.800 26.258,378.440 26.000,378.000 26.000 C 377.333 26.000,377.200 25.733,377.200 24.400 L 377.200 22.800 375.600 22.800 C 374.267 22.800,374.000 22.667,374.000 22.000 C 374.000 21.560,373.742 21.200,373.427 21.200 C 373.112 21.200,372.740 20.840,372.600 20.400 C 372.411 19.805,371.995 19.600,370.973 19.600 C 369.867 19.600,369.600 19.445,369.600 18.800 C 369.600 18.001,369.333 18.000,200.000 18.000 C 30.667 18.000,30.400 18.001,30.400 18.800 M276.957 112.633 C 277.274 113.459,277.274 148.941,276.957 149.767 C 276.739 150.335,274.023 150.400,250.357 150.400 L 224.000 150.400 224.000 219.367 C 224.000 257.299,223.891 288.619,223.757 288.967 C 223.386 289.934,176.614 289.934,176.243 288.967 C 176.109 288.619,176.000 257.299,176.000 219.367 L 176.000 150.400 149.643 150.400 C 125.977 150.400,123.261 150.335,123.043 149.767 C 122.726 148.941,122.726 113.459,123.043 112.633 C 123.415 111.662,276.585 111.662,276.957 112.633 " stroke="none" fill="#04e4fc" fill-rule="evenodd"></path><path id="path2" d="" stroke="none" fill="#100f0fc" fill-rule="evenodd"></path><path id="path3" d="M123.043 112.633 C 122.726 113.459,122.726 148.941,123.043 149.767 C 123.261 150.335,125.977 150.400,149.643 150.400 L 176.000 150.400 176.000 219.367 C 176.000 257.299,176.109 288.619,176.243 288.967 C 176.614 289.934,223.386 289.934,223.757 288.967 C 223.891 288.619,224.000 257.299,224.000 219.367 L 224.000 150.400 250.357 150.400 C 274.023 150.400,276.739 150.335,276.957 149.767 C 277.274 148.941,277.274 113.459,276.957 112.633 C 276.585 111.662,123.415 111.662,123.043 112.633 M276.304 131.300 C 276.361 141.365,276.361 149.642,276.304 149.693 C 276.247 149.744,264.320 149.879,249.800 149.993 L 223.400 150.200 223.200 219.400 L 223.000 288.600 200.000 288.600 L 177.000 288.600 176.800 219.400 L 176.600 150.200 150.200 149.993 C 135.680 149.879,123.755 149.744,123.700 149.693 C 123.461 149.471,123.627 113.307,123.868 113.066 C 124.015 112.918,158.350 112.843,200.168 112.899 L 276.200 113.000 276.304 131.300 " stroke="none" fill="#44f0fc" fill-rule="evenodd"></path><path id="path4" d="" stroke="none" fill="#04f4fc" fill-rule="evenodd"></path></g></svg>